<svg width="180" height="61" viewBox="0 0 180 61" fill="none" xmlns="http://www.w3.org/2000/svg">
<path d="M66.472 38.48C65.672 38.48 64.96 38.368 64.336 38.144C63.712 37.936 63.192 37.624 62.776 37.208C62.36 36.776 62.048 36.264 61.84 35.672C61.632 35.08 61.528 34.408 61.528 33.656C61.528 32.504 61.688 31.424 62.008 30.416C62.328 29.392 62.8 28.496 63.424 27.728C64.048 26.96 64.816 26.36 65.728 25.928C66.656 25.496 67.72 25.28 68.92 25.28C69.736 25.28 70.448 25.392 71.056 25.616C71.68 25.824 72.192 26.136 72.592 26.552C73.008 26.968 73.32 27.472 73.528 28.064C73.736 28.64 73.84 29.296 73.84 30.032C73.84 31.184 73.68 32.272 73.36 33.296C73.04 34.304 72.56 35.2 71.92 35.984C71.296 36.768 70.528 37.384 69.616 37.832C68.704 38.264 67.656 38.48 66.472 38.48ZM66.856 37.04C67.256 37.04 67.616 36.856 67.936 36.488C68.256 36.104 68.528 35.6 68.752 34.976C68.992 34.336 69.184 33.64 69.328 32.888C69.488 32.136 69.6 31.384 69.664 30.632C69.744 29.864 69.784 29.168 69.784 28.544C69.784 28 69.696 27.56 69.52 27.224C69.344 26.888 69.016 26.72 68.536 26.72C68.12 26.72 67.744 26.912 67.408 27.296C67.088 27.664 66.808 28.16 66.568 28.784C66.344 29.392 66.16 30.072 66.016 30.824C65.872 31.576 65.76 32.336 65.68 33.104C65.616 33.856 65.584 34.56 65.584 35.216C65.584 35.744 65.672 36.184 65.848 36.536C66.04 36.872 66.376 37.04 66.856 37.04ZM84.6319 38.48C83.8959 38.48 83.2959 38.296 82.8319 37.928C82.3679 37.544 82.1359 36.96 82.1359 36.176C82.1359 35.824 82.1839 35.384 82.2799 34.856C82.3919 34.328 82.5119 33.768 82.6399 33.176C82.7839 32.584 82.9199 31.992 83.0479 31.4C83.1919 30.808 83.3119 30.256 83.4079 29.744C83.5039 29.216 83.5519 28.776 83.5519 28.424C83.5519 28.056 83.4799 27.752 83.3359 27.512C83.1919 27.256 82.9359 27.128 82.5679 27.128C82.0879 27.128 81.6879 27.328 81.3679 27.728C81.0479 28.128 80.7839 28.616 80.5759 29.192C80.3839 29.768 80.2319 30.328 80.1199 30.872L78.7519 38L74.4559 38.432L76.9519 25.76L80.4559 25.328L80.0959 27.632C80.5279 26.8 81.1199 26.2 81.8719 25.832C82.6399 25.464 83.4799 25.28 84.3919 25.28C85.4319 25.28 86.2479 25.504 86.8399 25.952C87.4319 26.4 87.7279 27.12 87.7279 28.112C87.7279 28.528 87.6799 29 87.5839 29.528C87.4879 30.056 87.3679 30.616 87.2239 31.208C87.0959 31.784 86.9679 32.352 86.8399 32.912C86.7119 33.456 86.5999 33.968 86.5039 34.448C86.4079 34.912 86.3599 35.304 86.3599 35.624C86.3599 35.96 86.4319 36.24 86.5759 36.464C86.7359 36.688 87.0079 36.816 87.3919 36.848C87.2159 37.408 86.8559 37.816 86.3119 38.072C85.7839 38.344 85.2239 38.48 84.6319 38.48ZM88.2533 38.432L90.4373 27.392L94.1813 27.128C94.6613 26.456 95.2693 25.984 96.0053 25.712C96.7413 25.424 97.4773 25.28 98.2133 25.28C99.2853 25.28 100.101 25.536 100.661 26.048C101.221 26.544 101.501 27.272 101.501 28.232C101.501 29 101.333 29.672 100.997 30.248C100.661 30.824 100.197 31.304 99.6053 31.688C99.0293 32.056 98.3653 32.336 97.6133 32.528L94.2053 32.312C94.7493 32.168 95.2613 31.92 95.7413 31.568C96.2213 31.216 96.6053 30.776 96.8933 30.248C97.1973 29.72 97.3493 29.144 97.3493 28.52C97.3493 27.592 96.9973 27.128 96.2933 27.128C95.8293 27.128 95.4373 27.328 95.1173 27.728C94.7973 28.128 94.5413 28.616 94.3493 29.192C94.1733 29.768 94.0293 30.328 93.9173 30.872L92.5493 38L88.2533 38.432ZM98.0453 38.48C97.4853 38.48 97.0053 38.36 96.6053 38.12C96.2053 37.88 95.8613 37.552 95.5733 37.136C95.3013 36.72 95.0773 36.248 94.9013 35.72C94.7253 35.176 94.5813 34.616 94.4693 34.04C94.3573 33.464 94.2693 32.888 94.2053 32.312L97.8773 32.048L99.0053 35C99.1813 35.432 99.3973 35.816 99.6533 36.152C99.9253 36.472 100.261 36.656 100.661 36.704C100.517 37.28 100.197 37.72 99.7013 38.024C99.2053 38.328 98.6533 38.48 98.0453 38.48ZM94.2053 27.608L90.4133 27.464C90.5573 26.792 90.6853 26.112 90.7973 25.424C90.9253 24.736 91.0293 24.064 91.1093 23.408C91.1893 22.736 91.2373 22.12 91.2533 21.56C91.2693 21.352 91.2693 21.16 91.2533 20.984C91.2533 20.808 91.2533 20.64 91.2533 20.48C91.6053 20.272 91.9653 20.128 92.3333 20.048C92.7173 19.952 93.0853 19.904 93.4373 19.904C94.0293 19.904 94.5253 20.056 94.9253 20.36C95.3413 20.664 95.5413 21.184 95.5253 21.92C95.5253 22.16 95.4933 22.448 95.4293 22.784C95.3813 23.12 95.3093 23.488 95.2133 23.888C95.1333 24.272 95.0373 24.68 94.9253 25.112C94.8293 25.528 94.7173 25.952 94.5893 26.384C94.4613 26.816 94.3333 27.224 94.2053 27.608ZM106.572 38.48C105.596 38.48 104.732 38.304 103.98 37.952C103.244 37.6 102.668 37.064 102.252 36.344C101.836 35.608 101.628 34.672 101.628 33.536C101.628 32.496 101.772 31.488 102.06 30.512C102.364 29.536 102.82 28.656 103.428 27.872C104.052 27.072 104.844 26.44 105.804 25.976C106.764 25.512 107.9 25.28 109.212 25.28C109.9 25.28 110.532 25.368 111.108 25.544C111.7 25.704 112.18 26 112.548 26.432C112.916 26.848 113.1 27.448 113.1 28.232C113.1 29.048 112.86 29.752 112.38 30.344C111.916 30.936 111.228 31.4 110.316 31.736C109.42 32.072 108.324 32.272 107.028 32.336C106.82 32.336 106.604 32.336 106.38 32.336C106.172 32.336 105.972 32.336 105.78 32.336C105.764 32.528 105.748 32.728 105.732 32.936C105.716 33.128 105.708 33.304 105.708 33.464C105.708 34.168 105.86 34.72 106.164 35.12C106.468 35.504 106.996 35.696 107.748 35.696C108.372 35.696 108.988 35.56 109.596 35.288C110.204 35.016 110.66 34.616 110.964 34.088C111.188 34.216 111.34 34.376 111.42 34.568C111.516 34.744 111.564 34.96 111.564 35.216C111.564 35.856 111.332 36.424 110.868 36.92C110.42 37.416 109.812 37.8 109.044 38.072C108.292 38.344 107.468 38.48 106.572 38.48ZM105.924 31.256C106.484 31.256 106.988 31.176 107.436 31.016C107.9 30.856 108.3 30.632 108.636 30.344C108.972 30.04 109.228 29.68 109.404 29.264C109.58 28.848 109.668 28.384 109.668 27.872C109.668 27.456 109.588 27.136 109.428 26.912C109.284 26.672 109.036 26.552 108.684 26.552C108.38 26.552 108.084 26.656 107.796 26.864C107.508 27.072 107.244 27.376 107.004 27.776C106.78 28.176 106.572 28.672 106.38 29.264C106.204 29.84 106.052 30.504 105.924 31.256ZM113.151 38.432L115.599 25.76L119.103 25.328L118.743 27.632C119.095 26.88 119.575 26.304 120.183 25.904C120.807 25.488 121.535 25.28 122.367 25.28C123.279 25.28 123.967 25.52 124.431 26C124.911 26.464 125.151 27.12 125.151 27.968C125.151 28.928 124.871 29.728 124.311 30.368C123.751 30.992 123.023 31.304 122.127 31.304C121.871 31.304 121.615 31.272 121.359 31.208C121.103 31.144 120.903 31.032 120.759 30.872C121.031 30.536 121.247 30.104 121.407 29.576C121.583 29.032 121.671 28.552 121.671 28.136C121.671 27.848 121.615 27.608 121.503 27.416C121.407 27.224 121.215 27.128 120.927 27.128C120.655 27.128 120.399 27.224 120.159 27.416C119.935 27.608 119.735 27.88 119.559 28.232C119.383 28.568 119.223 28.976 119.079 29.456C118.935 29.936 118.815 30.464 118.719 31.04L117.567 38L113.151 38.432ZM141.704 38.48C140.968 38.48 140.368 38.296 139.904 37.928C139.44 37.544 139.208 36.96 139.208 36.176C139.208 35.824 139.256 35.384 139.352 34.856C139.464 34.328 139.584 33.768 139.712 33.176C139.856 32.584 139.992 31.992 140.12 31.4C140.264 30.792 140.384 30.24 140.48 29.744C140.576 29.232 140.624 28.8 140.624 28.448C140.624 28.08 140.552 27.768 140.408 27.512C140.264 27.256 140 27.128 139.616 27.128C139.248 27.128 138.92 27.264 138.632 27.536C138.36 27.792 138.128 28.12 137.936 28.52C137.76 28.92 137.616 29.328 137.504 29.744C137.392 30.16 137.304 30.536 137.24 30.872L135.848 38L131.576 38.432L132.896 32.168C132.944 31.96 133 31.696 133.064 31.376C133.128 31.04 133.192 30.688 133.256 30.32C133.32 29.952 133.376 29.6 133.424 29.264C133.488 28.912 133.52 28.616 133.52 28.376C133.52 28.056 133.448 27.768 133.304 27.512C133.16 27.256 132.896 27.128 132.512 27.128C132.128 27.128 131.8 27.256 131.528 27.512C131.256 27.752 131.024 28.072 130.832 28.472C130.656 28.856 130.512 29.264 130.4 29.696C130.288 30.112 130.192 30.504 130.112 30.872L128.744 38L124.448 38.432L126.944 25.76L130.448 25.328L130.088 27.632C130.504 26.784 131.08 26.184 131.816 25.832C132.552 25.464 133.368 25.28 134.264 25.28C135.064 25.28 135.736 25.432 136.28 25.736C136.824 26.04 137.2 26.552 137.408 27.272C137.84 26.552 138.416 26.04 139.136 25.736C139.856 25.432 140.624 25.28 141.44 25.28C142.48 25.28 143.296 25.504 143.888 25.952C144.48 26.4 144.776 27.12 144.776 28.112C144.776 28.528 144.728 29.008 144.632 29.552C144.552 30.08 144.44 30.632 144.296 31.208C144.168 31.784 144.04 32.352 143.912 32.912C143.784 33.456 143.672 33.968 143.576 34.448C143.48 34.912 143.432 35.304 143.432 35.624C143.432 35.96 143.504 36.24 143.648 36.464C143.808 36.688 144.08 36.816 144.464 36.848C144.288 37.408 143.928 37.816 143.384 38.072C142.84 38.344 142.28 38.48 141.704 38.48ZM149.74 38.48C148.86 38.48 148.14 38.288 147.58 37.904C147.02 37.504 146.604 36.96 146.332 36.272C146.076 35.568 145.948 34.744 145.948 33.8C145.948 32.6 146.124 31.488 146.476 30.464C146.844 29.424 147.356 28.52 148.012 27.752C148.668 26.968 149.428 26.36 150.292 25.928C151.156 25.496 152.1 25.28 153.124 25.28C153.94 25.28 154.78 25.44 155.644 25.76L159.076 25.328L157.3 34.688C157.284 34.832 157.26 35 157.228 35.192C157.196 35.384 157.18 35.552 157.18 35.696C157.18 35.984 157.26 36.248 157.42 36.488C157.596 36.712 157.868 36.832 158.236 36.848C158.108 37.232 157.9 37.544 157.612 37.784C157.324 38.024 156.988 38.2 156.604 38.312C156.236 38.424 155.86 38.48 155.476 38.48C154.98 38.48 154.524 38.368 154.108 38.144C153.692 37.92 153.412 37.576 153.268 37.112C152.852 37.528 152.348 37.856 151.756 38.096C151.164 38.352 150.492 38.48 149.74 38.48ZM151.132 36.968C151.612 36.968 151.996 36.8 152.284 36.464C152.588 36.112 152.828 35.688 153.004 35.192C153.18 34.696 153.308 34.216 153.388 33.752L154.54 27.224C154.3 27.048 154.052 26.92 153.796 26.84C153.556 26.76 153.34 26.72 153.148 26.72C152.684 26.72 152.276 26.904 151.924 27.272C151.572 27.64 151.268 28.136 151.012 28.76C150.772 29.368 150.572 30.04 150.412 30.776C150.268 31.496 150.164 32.232 150.1 32.984C150.036 33.72 150.004 34.392 150.004 35C150.004 35.496 150.076 35.952 150.22 36.368C150.364 36.768 150.668 36.968 151.132 36.968ZM159.581 38.432L162.029 25.76L165.533 25.328L165.173 27.632C165.525 26.88 166.005 26.304 166.613 25.904C167.237 25.488 167.965 25.28 168.797 25.28C169.709 25.28 170.397 25.52 170.861 26C171.341 26.464 171.581 27.12 171.581 27.968C171.581 28.928 171.301 29.728 170.741 30.368C170.181 30.992 169.453 31.304 168.557 31.304C168.301 31.304 168.045 31.272 167.789 31.208C167.533 31.144 167.333 31.032 167.189 30.872C167.461 30.536 167.677 30.104 167.837 29.576C168.013 29.032 168.101 28.552 168.101 28.136C168.101 27.848 168.045 27.608 167.933 27.416C167.837 27.224 167.645 27.128 167.357 27.128C167.085 27.128 166.829 27.224 166.589 27.416C166.365 27.608 166.165 27.88 165.989 28.232C165.813 28.568 165.653 28.976 165.509 29.456C165.365 29.936 165.245 30.464 165.149 31.04L163.997 38L159.581 38.432ZM174.286 38.48C173.582 38.48 172.974 38.288 172.462 37.904C171.966 37.52 171.718 36.96 171.718 36.224C171.718 35.904 171.758 35.488 171.838 34.976C171.918 34.448 172.006 33.896 172.102 33.32C172.214 32.744 172.326 32.192 172.438 31.664C172.55 31.136 172.63 30.704 172.678 30.368L173.398 26.84H171.91L172.006 26.12C172.902 25.832 173.798 25.44 174.694 24.944C175.606 24.448 176.47 23.872 177.286 23.216H178.342L177.79 25.76H179.662L179.446 26.84H177.598L176.134 34.376C176.102 34.6 176.07 34.816 176.038 35.024C176.006 35.216 175.982 35.408 175.966 35.6C175.966 36.144 176.094 36.504 176.35 36.68C176.606 36.84 176.974 36.864 177.454 36.752C177.246 37.232 176.974 37.6 176.638 37.856C176.302 38.096 175.926 38.256 175.51 38.336C175.11 38.432 174.702 38.48 174.286 38.48Z" fill="#82C91E"/>
<path fill-rule="evenodd" clip-rule="evenodd" d="M28 1C23.3033 1 19.2941 3.94351 17.7166 8.08641C17.3192 8.02947 16.9131 8 16.5 8C11.8056 8 8 11.8056 8 16.5C8 17.1707 8.07767 17.8232 8.22451 18.449C8.17477 18.5391 8.12555 18.6295 8.07685 18.7202C3.93898 20.3003 1 24.3069 1 29C1 32.8699 2.99841 36.2731 6.01956 38.2338C6.09733 38.5028 6.17933 38.7701 6.26549 39.0355C5.4631 40.3329 5 41.8624 5 43.5C5 47.5681 7.85783 50.9687 11.6754 51.8037C13.2235 56.0043 17.2619 59 22 59C24.4282 59 26.6727 58.2132 28.4924 56.8806L28.5587 56.8869C30.83 58.8279 33.7781 60 37 60C40.7936 60 44.2077 58.3751 46.5842 55.7832C47.1999 55.9251 47.8412 56 48.5 56C53.1944 56 57 52.1944 57 47.5C57 45.2543 56.1291 43.212 54.7066 41.6924C54.7332 41.6336 54.7596 41.5747 54.7857 41.5157C58.4904 39.473 61 35.5296 61 31C61 26.4704 58.4904 22.527 54.7857 20.4843C54.7322 20.3634 54.6777 20.243 54.6224 20.1231C54.8691 19.1226 55 18.0766 55 17C55 9.8203 49.1797 4 42 4C40.0803 4 38.2578 4.4161 36.6177 5.16303C34.6026 2.62647 31.4913 1 28 1Z" fill="#82C91E"/>
<path d="M28.648 41L26.308 24.116L26.164 23.792L24.652 17.24H31.168L33.04 31.532H33.148L40.204 17.276H46.684L40.204 24.152L31.996 41H28.648ZM17.128 41.9C16.384 41.9 15.784 41.66 15.328 41.18C14.896 40.724 14.692 40.208 14.716 39.632C14.716 39.296 14.788 38.984 14.932 38.696C15.772 38.624 16.54 38.276 17.236 37.652C17.932 37.028 18.58 36.188 19.18 35.132C19.78 34.052 20.332 32.828 20.836 31.46C21.34 30.068 21.808 28.592 22.24 27.032C22.672 25.448 23.08 23.828 23.464 22.172C23.848 20.492 24.208 18.848 24.544 17.24L26.776 21.668C26.248 24.98 25.684 27.812 25.084 30.164C24.484 32.516 23.86 34.46 23.212 35.996C22.564 37.508 21.904 38.696 21.232 39.56C20.56 40.4 19.876 41 19.18 41.36C18.484 41.72 17.8 41.9 17.128 41.9ZM15.976 28.184C14.968 28.184 14.128 27.968 13.456 27.536C12.808 27.104 12.328 26.528 12.016 25.808C11.704 25.064 11.56 24.26 11.584 23.396C11.608 22.532 11.8 21.68 12.16 20.84C12.52 19.976 13.06 19.196 13.78 18.5C14.5 17.804 15.4 17.24 16.48 16.808C17.56 16.376 18.844 16.16 20.332 16.16C21.7 16.16 22.948 16.256 24.076 16.448C25.204 16.616 26.332 16.784 27.46 16.952C28.588 17.12 29.812 17.216 31.132 17.24L28.324 20.552L24.184 19.076L24.004 18.752C23.332 18.536 22.672 18.428 22.024 18.428C20.752 18.428 19.696 18.848 18.856 19.688C18.016 20.528 17.572 21.716 17.524 23.252C17.524 23.948 17.572 24.608 17.668 25.232C17.788 25.832 18.028 26.504 18.388 27.248C18.028 27.584 17.62 27.824 17.164 27.968C16.732 28.112 16.336 28.184 15.976 28.184ZM42.832 46.724C42.208 46.724 41.62 46.604 41.068 46.364C40.516 46.124 40.036 45.704 39.628 45.104C39.244 44.504 38.944 43.64 38.728 42.512C38.536 41.408 38.464 39.98 38.512 38.228C38.56 37.028 38.656 35.636 38.8 34.052C38.968 32.468 39.22 30.68 39.556 28.688C39.892 26.696 40.336 24.512 40.888 22.136L40.744 21.272L40.204 17.276H46.756C46.564 18.692 46.36 20.18 46.144 21.74C45.928 23.3 45.712 24.86 45.496 26.42C45.304 27.98 45.136 29.504 44.992 30.992C44.872 32.48 44.8 33.884 44.776 35.204C44.704 37.412 44.812 39.296 45.1 40.856C45.388 42.416 45.94 43.46 46.756 43.988C46.708 44.372 46.492 44.768 46.108 45.176C45.748 45.608 45.28 45.968 44.704 46.256C44.128 46.568 43.504 46.724 42.832 46.724Z" fill="white"/>
<circle cx="53" cy="31" r="2" fill="#82C91E"/>
<circle cx="58.5" cy="42.5" r="1.5" fill="#82C91E"/>
<circle cx="59" cy="18" r="3" fill="#82C91E"/>
<circle cx="3" cy="16" r="3" fill="#82C91E"/>
<circle cx="8" cy="55" r="3" fill="#82C91E"/>
<circle cx="28" cy="59" r="1" fill="#82C91E"/>
<circle cx="17" cy="6" r="1" fill="#82C91E"/>
<circle cx="3" cy="39" r="2" fill="#82C91E"/>
<circle cx="48" cy="59" r="2" fill="#82C91E"/>
<circle cx="37" cy="2" r="2" fill="#82C91E"/>
</svg>
